G04 #@! TF.FileFunction,Legend,Bot*
%FSLAX46Y46*%
G04 Gerber Fmt 4.6, Leading zero omitted, Abs format (unit mm)*
G04 Created by KiCad (PCBNEW 4.0.6-e0-6349~53~ubuntu16.04.1) date Fri Jun  9 17:52:53 2017*
%MOMM*%
%LPD*%
G01*
G04 APERTURE LIST*
%ADD10C,0.100000*%
%ADD11C,0.187500*%
%ADD12C,0.300000*%
G04 APERTURE END LIST*
D10*
D11*
X20839286Y14410714D02*
X21339286Y14232143D01*
X20839286Y14053571D01*
X20589286Y13624999D02*
X20589286Y13553571D01*
X20625000Y13482142D01*
X20660714Y13446428D01*
X20732143Y13410714D01*
X20875000Y13374999D01*
X21053571Y13374999D01*
X21196429Y13410714D01*
X21267857Y13446428D01*
X21303571Y13482142D01*
X21339286Y13553571D01*
X21339286Y13624999D01*
X21303571Y13696428D01*
X21267857Y13732142D01*
X21196429Y13767857D01*
X21053571Y13803571D01*
X20875000Y13803571D01*
X20732143Y13767857D01*
X20660714Y13732142D01*
X20625000Y13696428D01*
X20589286Y13624999D01*
X21267857Y13053571D02*
X21303571Y13017856D01*
X21339286Y13053571D01*
X21303571Y13089285D01*
X21267857Y13053571D01*
X21339286Y13053571D01*
X21339286Y12303570D02*
X21339286Y12732142D01*
X21339286Y12517856D02*
X20589286Y12517856D01*
X20696429Y12589285D01*
X20767857Y12660713D01*
X20803571Y12732142D01*
X21339286Y11660713D02*
X20946429Y11660713D01*
X20875000Y11696427D01*
X20839286Y11767856D01*
X20839286Y11910713D01*
X20875000Y11982142D01*
X21303571Y11660713D02*
X21339286Y11732142D01*
X21339286Y11910713D01*
X21303571Y11982142D01*
X21232143Y12017856D01*
X21160714Y12017856D01*
X21089286Y11982142D01*
X21053571Y11910713D01*
X21053571Y11732142D01*
X21017857Y11660713D01*
D12*
X2252856Y4464571D02*
X2395714Y4536000D01*
X2467142Y4607429D01*
X2538571Y4750286D01*
X2538571Y4821714D01*
X2467142Y4964571D01*
X2395714Y5036000D01*
X2252856Y5107429D01*
X1967142Y5107429D01*
X1824285Y5036000D01*
X1752856Y4964571D01*
X1681428Y4821714D01*
X1681428Y4750286D01*
X1752856Y4607429D01*
X1824285Y4536000D01*
X1967142Y4464571D01*
X2252856Y4464571D01*
X2395714Y4393143D01*
X2467142Y4321714D01*
X2538571Y4178857D01*
X2538571Y3893143D01*
X2467142Y3750286D01*
X2395714Y3678857D01*
X2252856Y3607429D01*
X1967142Y3607429D01*
X1824285Y3678857D01*
X1752856Y3750286D01*
X1681428Y3893143D01*
X1681428Y4178857D01*
X1752856Y4321714D01*
X1824285Y4393143D01*
X1967142Y4464571D01*
X5149999Y5107429D02*
X4149999Y5107429D01*
X4792856Y3607429D01*
X6904285Y5107429D02*
X7189999Y5107429D01*
X7332856Y5036000D01*
X7404285Y4964571D01*
X7547142Y4750286D01*
X7618571Y4464571D01*
X7618571Y3893143D01*
X7547142Y3750286D01*
X7475714Y3678857D01*
X7332856Y3607429D01*
X7047142Y3607429D01*
X6904285Y3678857D01*
X6832856Y3750286D01*
X6761428Y3893143D01*
X6761428Y4250286D01*
X6832856Y4393143D01*
X6904285Y4464571D01*
X7047142Y4536000D01*
X7332856Y4536000D01*
X7475714Y4464571D01*
X7547142Y4393143D01*
X7618571Y4250286D01*
X9372856Y5107429D02*
X10087142Y5107429D01*
X10158571Y4393143D01*
X10087142Y4464571D01*
X9944285Y4536000D01*
X9587142Y4536000D01*
X9444285Y4464571D01*
X9372856Y4393143D01*
X9301428Y4250286D01*
X9301428Y3893143D01*
X9372856Y3750286D01*
X9444285Y3678857D01*
X9587142Y3607429D01*
X9944285Y3607429D01*
X10087142Y3678857D01*
X10158571Y3750286D01*
X11984285Y4607429D02*
X11984285Y3607429D01*
X12341428Y5178857D02*
X12698571Y4107429D01*
X11769999Y4107429D01*
X15309999Y5107429D02*
X14381428Y5107429D01*
X14881428Y4536000D01*
X14667142Y4536000D01*
X14524285Y4464571D01*
X14452856Y4393143D01*
X14381428Y4250286D01*
X14381428Y3893143D01*
X14452856Y3750286D01*
X14524285Y3678857D01*
X14667142Y3607429D01*
X15095714Y3607429D01*
X15238571Y3678857D01*
X15309999Y3750286D01*
X17778571Y4964571D02*
X17707142Y5036000D01*
X17564285Y5107429D01*
X17207142Y5107429D01*
X17064285Y5036000D01*
X16992856Y4964571D01*
X16921428Y4821714D01*
X16921428Y4678857D01*
X16992856Y4464571D01*
X17849999Y3607429D01*
X16921428Y3607429D01*
X19461428Y3607429D02*
X20318571Y3607429D01*
X19889999Y3607429D02*
X19889999Y5107429D01*
X20032856Y4893143D01*
X20175714Y4750286D01*
X20318571Y4678857D01*
M02*
