G04 #@! TF.FileFunction,Soldermask,Bot*
%FSLAX46Y46*%
G04 Gerber Fmt 4.6, Leading zero omitted, Abs format (unit mm)*
G04 Created by KiCad (PCBNEW 4.0.6-e0-6349~53~ubuntu16.04.1) date Fri Jun  9 17:52:53 2017*
%MOMM*%
%LPD*%
G01*
G04 APERTURE LIST*
%ADD10C,0.100000*%
%ADD11C,0.250000*%
%ADD12O,1.797000X2.432000*%
%ADD13C,3.600000*%
%ADD14O,1.900000X2.400000*%
%ADD15C,2.900000*%
G04 APERTURE END LIST*
D10*
D11*
X15880952Y13458333D02*
X15404761Y13458333D01*
X15976190Y13172619D02*
X15642857Y14172619D01*
X15309523Y13172619D01*
X14976190Y13172619D02*
X14976190Y13839286D01*
X14976190Y13744048D02*
X14928571Y13791667D01*
X14833333Y13839286D01*
X14690475Y13839286D01*
X14595237Y13791667D01*
X14547618Y13696429D01*
X14547618Y13172619D01*
X14547618Y13696429D02*
X14499999Y13791667D01*
X14404761Y13839286D01*
X14261904Y13839286D01*
X14166666Y13791667D01*
X14119047Y13696429D01*
X14119047Y13172619D01*
X13642857Y13172619D02*
X13642857Y13839286D01*
X13642857Y14172619D02*
X13690476Y14125000D01*
X13642857Y14077381D01*
X13595238Y14125000D01*
X13642857Y14172619D01*
X13642857Y14077381D01*
X12738095Y13839286D02*
X12738095Y13029762D01*
X12785714Y12934524D01*
X12833333Y12886905D01*
X12928572Y12839286D01*
X13071429Y12839286D01*
X13166667Y12886905D01*
X12738095Y13220238D02*
X12833333Y13172619D01*
X13023810Y13172619D01*
X13119048Y13220238D01*
X13166667Y13267857D01*
X13214286Y13363095D01*
X13214286Y13648810D01*
X13166667Y13744048D01*
X13119048Y13791667D01*
X13023810Y13839286D01*
X12833333Y13839286D01*
X12738095Y13791667D01*
X12119048Y13172619D02*
X12214286Y13220238D01*
X12261905Y13267857D01*
X12309524Y13363095D01*
X12309524Y13648810D01*
X12261905Y13744048D01*
X12214286Y13791667D01*
X12119048Y13839286D01*
X11976190Y13839286D01*
X11880952Y13791667D01*
X11833333Y13744048D01*
X11785714Y13648810D01*
X11785714Y13363095D01*
X11833333Y13267857D01*
X11880952Y13220238D01*
X11976190Y13172619D01*
X12119048Y13172619D01*
X10023809Y13172619D02*
X10357143Y13648810D01*
X10595238Y13172619D02*
X10595238Y14172619D01*
X10214285Y14172619D01*
X10119047Y14125000D01*
X10071428Y14077381D01*
X10023809Y13982143D01*
X10023809Y13839286D01*
X10071428Y13744048D01*
X10119047Y13696429D01*
X10214285Y13648810D01*
X10595238Y13648810D01*
X9309523Y14172619D02*
X9309523Y13458333D01*
X9357143Y13315476D01*
X9452381Y13220238D01*
X9595238Y13172619D01*
X9690476Y13172619D01*
X8833333Y13553571D02*
X8071428Y13553571D01*
X7166666Y13839286D02*
X7166666Y13172619D01*
X7404762Y14220238D02*
X7642857Y13505952D01*
X7023809Y13505952D01*
X6166666Y14172619D02*
X6642857Y14172619D01*
X6690476Y13696429D01*
X6642857Y13744048D01*
X6547619Y13791667D01*
X6309523Y13791667D01*
X6214285Y13744048D01*
X6166666Y13696429D01*
X6119047Y13601190D01*
X6119047Y13363095D01*
X6166666Y13267857D01*
X6214285Y13220238D01*
X6309523Y13172619D01*
X6547619Y13172619D01*
X6642857Y13220238D01*
X6690476Y13267857D01*
X17357143Y12089286D02*
X16976191Y12089286D01*
X17214286Y11422619D02*
X17214286Y12279762D01*
X17166667Y12375000D01*
X17071429Y12422619D01*
X16976191Y12422619D01*
X16214285Y11422619D02*
X16214285Y11946429D01*
X16261904Y12041667D01*
X16357142Y12089286D01*
X16547619Y12089286D01*
X16642857Y12041667D01*
X16214285Y11470238D02*
X16309523Y11422619D01*
X16547619Y11422619D01*
X16642857Y11470238D01*
X16690476Y11565476D01*
X16690476Y11660714D01*
X16642857Y11755952D01*
X16547619Y11803571D01*
X16309523Y11803571D01*
X16214285Y11851190D01*
X15738095Y11422619D02*
X15738095Y12422619D01*
X15738095Y12041667D02*
X15642857Y12089286D01*
X15452380Y12089286D01*
X15357142Y12041667D01*
X15309523Y11994048D01*
X15261904Y11898810D01*
X15261904Y11613095D01*
X15309523Y11517857D01*
X15357142Y11470238D01*
X15452380Y11422619D01*
X15642857Y11422619D01*
X15738095Y11470238D01*
X14833333Y11422619D02*
X14833333Y12089286D01*
X14833333Y11898810D02*
X14785714Y11994048D01*
X14738095Y12041667D01*
X14642857Y12089286D01*
X14547618Y12089286D01*
X14214285Y11422619D02*
X14214285Y12089286D01*
X14214285Y12422619D02*
X14261904Y12375000D01*
X14214285Y12327381D01*
X14166666Y12375000D01*
X14214285Y12422619D01*
X14214285Y12327381D01*
X13309523Y11470238D02*
X13404761Y11422619D01*
X13595238Y11422619D01*
X13690476Y11470238D01*
X13738095Y11517857D01*
X13785714Y11613095D01*
X13785714Y11898810D01*
X13738095Y11994048D01*
X13690476Y12041667D01*
X13595238Y12089286D01*
X13404761Y12089286D01*
X13309523Y12041667D01*
X12452380Y11422619D02*
X12452380Y11946429D01*
X12499999Y12041667D01*
X12595237Y12089286D01*
X12785714Y12089286D01*
X12880952Y12041667D01*
X12452380Y11470238D02*
X12547618Y11422619D01*
X12785714Y11422619D01*
X12880952Y11470238D01*
X12928571Y11565476D01*
X12928571Y11660714D01*
X12880952Y11755952D01*
X12785714Y11803571D01*
X12547618Y11803571D01*
X12452380Y11851190D01*
X11547618Y11422619D02*
X11547618Y12422619D01*
X11547618Y11470238D02*
X11642856Y11422619D01*
X11833333Y11422619D01*
X11928571Y11470238D01*
X11976190Y11517857D01*
X12023809Y11613095D01*
X12023809Y11898810D01*
X11976190Y11994048D01*
X11928571Y12041667D01*
X11833333Y12089286D01*
X11642856Y12089286D01*
X11547618Y12041667D01*
X11071428Y11422619D02*
X11071428Y12089286D01*
X11071428Y12422619D02*
X11119047Y12375000D01*
X11071428Y12327381D01*
X11023809Y12375000D01*
X11071428Y12422619D01*
X11071428Y12327381D01*
X10166666Y12089286D02*
X10166666Y11279762D01*
X10214285Y11184524D01*
X10261904Y11136905D01*
X10357143Y11089286D01*
X10500000Y11089286D01*
X10595238Y11136905D01*
X10166666Y11470238D02*
X10261904Y11422619D01*
X10452381Y11422619D01*
X10547619Y11470238D01*
X10595238Y11517857D01*
X10642857Y11613095D01*
X10642857Y11898810D01*
X10595238Y11994048D01*
X10547619Y12041667D01*
X10452381Y12089286D01*
X10261904Y12089286D01*
X10166666Y12041667D01*
X9690476Y11422619D02*
X9690476Y12089286D01*
X9690476Y12422619D02*
X9738095Y12375000D01*
X9690476Y12327381D01*
X9642857Y12375000D01*
X9690476Y12422619D01*
X9690476Y12327381D01*
X9357143Y12089286D02*
X8976191Y12089286D01*
X9214286Y12422619D02*
X9214286Y11565476D01*
X9166667Y11470238D01*
X9071429Y11422619D01*
X8976191Y11422619D01*
X8214285Y11422619D02*
X8214285Y11946429D01*
X8261904Y12041667D01*
X8357142Y12089286D01*
X8547619Y12089286D01*
X8642857Y12041667D01*
X8214285Y11470238D02*
X8309523Y11422619D01*
X8547619Y11422619D01*
X8642857Y11470238D01*
X8690476Y11565476D01*
X8690476Y11660714D01*
X8642857Y11755952D01*
X8547619Y11803571D01*
X8309523Y11803571D01*
X8214285Y11851190D01*
X7595238Y11422619D02*
X7690476Y11470238D01*
X7738095Y11565476D01*
X7738095Y12422619D01*
X7214285Y11517857D02*
X7166666Y11470238D01*
X7214285Y11422619D01*
X7261904Y11470238D01*
X7214285Y11517857D01*
X7214285Y11422619D01*
X6595238Y11422619D02*
X6690476Y11470238D01*
X6738095Y11517857D01*
X6785714Y11613095D01*
X6785714Y11898810D01*
X6738095Y11994048D01*
X6690476Y12041667D01*
X6595238Y12089286D01*
X6452380Y12089286D01*
X6357142Y12041667D01*
X6309523Y11994048D01*
X6261904Y11898810D01*
X6261904Y11613095D01*
X6309523Y11517857D01*
X6357142Y11470238D01*
X6452380Y11422619D01*
X6595238Y11422619D01*
X5833333Y11422619D02*
X5833333Y12089286D01*
X5833333Y11898810D02*
X5785714Y11994048D01*
X5738095Y12041667D01*
X5642857Y12089286D01*
X5547618Y12089286D01*
X4785713Y12089286D02*
X4785713Y11279762D01*
X4833332Y11184524D01*
X4880951Y11136905D01*
X4976190Y11089286D01*
X5119047Y11089286D01*
X5214285Y11136905D01*
X4785713Y11470238D02*
X4880951Y11422619D01*
X5071428Y11422619D01*
X5166666Y11470238D01*
X5214285Y11517857D01*
X5261904Y11613095D01*
X5261904Y11898810D01*
X5214285Y11994048D01*
X5166666Y12041667D01*
X5071428Y12089286D01*
X4880951Y12089286D01*
X4785713Y12041667D01*
D12*
X19890000Y2000000D03*
X17350000Y2000000D03*
X14810000Y2000000D03*
X12270000Y2000000D03*
X9730000Y2000000D03*
X7190000Y2000000D03*
X4650000Y2000000D03*
X2110000Y2000000D03*
D13*
X16715000Y16000000D03*
X5285000Y16000000D03*
D14*
X15445000Y9650000D03*
X14175000Y7110000D03*
X12905000Y9650000D03*
X11635000Y7110000D03*
X10365000Y9650000D03*
X9095000Y7110000D03*
X7825000Y9650000D03*
X6555000Y7110000D03*
D15*
X18850000Y19050000D03*
X3150000Y19050000D03*
M02*
