M48
METRIC,TZ
T1C0.900
T2C1.016
T3C1.600
T4C3.200
%
G90
G05
T1
X6555Y7110
X7825Y9650
X9095Y7110
X10365Y9650
X11635Y7110
X12905Y9650
X14175Y7110
X15445Y9650
T2
X2110Y1873
X4650Y2127
X7190Y1873
X9730Y2127
X12270Y1873
X14810Y2127
X17350Y1873
X19890Y2127
T3
X3150Y19050
X18850Y19050
T4
X5285Y16000
X16715Y16000
T0
M30
